# xmcd
#
# Track frame offsets:
#	150
#	13288
#	30381
#	45163
#	67651
#	80931
#	94106
#	106668
#	126663
#	140036
#	153983
#
# Disc length: 2294 seconds
#
# Revision: 1
# Processed by: cddbd v1.5.2PL0 Copyright (c) Steve Scherf et al.
# Submitted via: audiograbber 1.83.01
#
DISCID=8a08f40b
DTITLE=The Petersens - Finally Going Home
DYEAR=2012
DGENRE=Bluegrass and Gospel
TTITLE0=If Wishes Were Horses
TTITLE1=Jolene
TTITLE2=Daddy's Got A Gun
TTITLE3=Blue
TTITLE4=Born to Fly
TTITLE5=Bear Tracks
TTITLE6=If I Could Only Learn To Yodel
TTITLE7=Finally Going Home
TTITLE8=What A Beautiful Day
TTITLE9=Pardon Me
TTITLE10=Wishing Well Blues
EXTD=Barcode 191061779735
EXTT0=
EXTT1=
EXTT2=Written by Kathryn Petersen, CD Baby Publishing
EXTT3=
EXTT4=
EXTT5=
EXTT6=
EXTT7=Written by Kathryn and Matthew Petersen, CD Baby Publishing
EXTT8=
EXTT9=
EXTT10=
PLAYORDER=
